<?xml version="1.0" standalone="no"?>
<!DOCTYPE svg PUBLIC "-//W3C//DTD SVG 20010904//EN"
 "http://www.w3.org/TR/2001/REC-SVG-20010904/DTD/svg10.dtd">
<svg version="1.0" xmlns="http://www.w3.org/2000/svg"
 width="64.000000pt" height="64.000000pt" viewBox="0 0 64.000000 64.000000"
 preserveAspectRatio="xMidYMid meet">

<g transform="translate(0.000000,64.000000) scale(0.100000,-0.100000)"
fill="#000000" stroke="none">
<path d="M65 567 c-3 -7 -4 -123 -3 -257 l3 -245 255 0 255 0 0 255 0 255
-253 3 c-198 2 -254 0 -257 -11z m495 -247 l0 -240 -240 0 -240 0 0 240 0 240
240 0 240 0 0 -240z"/>
<path d="M124 507 c-3 -8 -4 -34 -2 -58 l3 -44 55 0 55 0 0 55 0 55 -53 3
c-38 2 -54 -1 -58 -11z m96 -47 l0 -40 -40 0 -40 0 0 40 0 40 40 0 40 0 0 -40z"/>
<path d="M160 460 c0 -13 7 -20 20 -20 13 0 20 7 20 20 0 13 -7 20 -20 20 -13
0 -20 -7 -20 -20z"/>
<path d="M260 490 c0 -23 4 -30 20 -30 13 0 20 -7 20 -20 0 -11 5 -20 10 -20
6 0 10 -9 10 -20 0 -16 -7 -20 -30 -20 -27 0 -30 -3 -30 -30 0 -16 -4 -30 -10
-30 -5 0 -10 9 -10 20 0 16 -7 20 -30 20 -27 0 -30 -3 -30 -30 0 -28 2 -30 40
-30 33 0 40 -3 40 -20 0 -16 7 -20 30 -20 17 0 30 -4 30 -10 0 -5 -9 -10 -20
-10 -16 0 -20 -7 -20 -30 0 -27 3 -30 30 -30 29 0 30 1 30 50 0 49 -1 50 -30
50 -16 0 -30 5 -30 10 0 6 18 10 40 10 l40 0 0 -60 0 -60 30 0 c23 0 30 4 30
20 0 13 7 20 20 20 17 0 20 -7 20 -50 0 -49 1 -50 30 -50 27 0 30 3 30 30 0
23 -4 30 -20 30 -16 0 -20 7 -20 30 0 27 -3 30 -30 30 -16 0 -30 5 -30 10 0 6
23 10 50 10 l50 0 0 60 0 60 -40 0 c-22 0 -40 -4 -40 -10 0 -5 14 -10 30 -10
23 0 30 -4 30 -20 0 -13 -7 -20 -20 -20 -13 0 -20 -7 -20 -20 0 -16 -7 -20
-30 -20 -23 0 -30 -4 -30 -20 0 -11 -4 -20 -10 -20 -5 0 -10 14 -10 30 0 23 4
30 20 30 16 0 20 7 20 30 0 27 -3 30 -30 30 -23 0 -30 -4 -30 -20 0 -17 -7
-20 -40 -20 -33 0 -40 3 -40 20 0 16 7 20 30 20 23 0 30 4 30 20 0 13 7 20 20
20 17 0 20 7 20 40 0 38 -2 40 -30 40 -23 0 -30 4 -30 20 0 16 -7 20 -30 20
-27 0 -30 -3 -30 -30z m40 0 c0 -5 -4 -10 -10 -10 -5 0 -10 5 -10 10 0 6 5 10
10 10 6 0 10 -4 10 -10z m60 -50 c0 -13 -7 -20 -20 -20 -13 0 -20 7 -20 20 0
13 7 20 20 20 13 0 20 -7 20 -20z m-140 -110 c0 -5 -4 -10 -10 -10 -5 0 -10 5
-10 10 0 6 5 10 10 10 6 0 10 -4 10 -10z m180 0 c0 -5 -4 -10 -10 -10 -5 0
-10 5 -10 10 0 6 5 10 10 10 6 0 10 -4 10 -10z m100 -40 c0 -5 -4 -10 -10 -10
-5 0 -10 5 -10 10 0 6 5 10 10 10 6 0 10 -4 10 -10z m-180 -80 c0 -5 -4 -10
-10 -10 -5 0 -10 5 -10 10 0 6 5 10 10 10 6 0 10 -4 10 -10z m80 0 c0 -5 -4
-10 -10 -10 -5 0 -10 5 -10 10 0 6 5 10 10 10 6 0 10 -4 10 -10z m100 -60 c0
-5 -4 -10 -10 -10 -5 0 -10 5 -10 10 0 6 5 10 10 10 6 0 10 -4 10 -10z"/>
<path d="M340 510 c0 -5 9 -10 20 -10 11 0 20 5 20 10 0 6 -9 10 -20 10 -11 0
-20 -4 -20 -10z"/>
<path d="M404 507 c-3 -8 -4 -34 -2 -58 l3 -44 55 0 55 0 0 55 0 55 -53 3
c-38 2 -54 -1 -58 -11z m96 -47 l0 -40 -40 0 -40 0 0 40 0 40 40 0 40 0 0 -40z"/>
<path d="M440 460 c0 -13 7 -20 20 -20 13 0 20 7 20 20 0 13 -7 20 -20 20 -13
0 -20 -7 -20 -20z"/>
<path d="M260 420 c0 -11 5 -20 10 -20 6 0 10 9 10 20 0 11 -4 20 -10 20 -5 0
-10 -9 -10 -20z"/>
<path d="M120 370 c0 -5 9 -10 20 -10 11 0 20 5 20 10 0 6 -9 10 -20 10 -11 0
-20 -4 -20 -10z"/>
<path d="M120 320 c0 -5 9 -10 20 -10 11 0 20 5 20 10 0 6 -9 10 -20 10 -11 0
-20 -4 -20 -10z"/>
<path d="M120 270 c0 -5 9 -10 20 -10 11 0 20 5 20 10 0 6 -9 10 -20 10 -11 0
-20 -4 -20 -10z"/>
<path d="M180 270 c0 -5 14 -10 30 -10 17 0 30 5 30 10 0 6 -13 10 -30 10 -16
0 -30 -4 -30 -10z"/>
<path d="M124 227 c-3 -8 -4 -34 -2 -58 l3 -44 55 0 55 0 0 55 0 55 -53 3
c-38 2 -54 -1 -58 -11z m96 -47 l0 -40 -40 0 -40 0 0 40 0 40 40 0 40 0 0 -40z"/>
<path d="M160 180 c0 -13 7 -20 20 -20 13 0 20 7 20 20 0 13 -7 20 -20 20 -13
0 -20 -7 -20 -20z"/>
<path d="M500 220 c0 -11 5 -20 10 -20 6 0 10 9 10 20 0 11 -4 20 -10 20 -5 0
-10 -9 -10 -20z"/>
<path d="M260 140 c0 -11 5 -20 10 -20 6 0 10 9 10 20 0 11 -4 20 -10 20 -5 0
-10 -9 -10 -20z"/>
<path d="M310 140 c0 -11 5 -20 10 -20 6 0 10 9 10 20 0 11 -4 20 -10 20 -5 0
-10 -9 -10 -20z"/>
<path d="M360 140 c0 -11 5 -20 10 -20 6 0 10 9 10 20 0 11 -4 20 -10 20 -5 0
-10 -9 -10 -20z"/>
<path d="M410 140 c0 -11 5 -20 10 -20 6 0 10 9 10 20 0 11 -4 20 -10 20 -5 0
-10 -9 -10 -20z"/>
</g>
</svg>
